<svg width="153" height="28" viewBox="0 0 153 28" fill="none" xmlns="http://www.w3.org/2000/svg">
<path d="M26.4929 10.8574C25.6045 9.90034 24.444 8.91475 23.312 7.91487C23.8995 8.48623 24.1144 9.37183 24.0714 10.186C24.0284 11.0145 23.7419 11.8001 23.4553 12.5714C23.9568 13.0142 24.5013 13.5285 24.5156 14.1855C24.5299 14.8426 24.0428 15.3711 23.5699 15.8282C20.9622 18.4279 18.3545 21.0275 15.7467 23.6272C15.2739 24.0986 14.7008 24.6128 14.0273 24.5414C13.5258 24.4842 13.1247 24.1129 12.7808 23.7558C11.4053 22.3845 10.0298 21.0132 8.65425 19.642L4.0119 15.014C3.72534 14.714 3.46743 14.3855 3.35281 14.0141C3.28116 13.6999 3.30982 13.3856 3.42445 13.0857C3.58206 12.7714 3.82564 12.5143 4.08354 12.2572C4.8716 11.4716 5.65965 10.686 6.4477 9.90034L12.3079 4.05821C12.5802 3.8011 12.8811 3.55827 13.225 3.42971C13.2966 3.41543 13.3539 3.40115 13.4255 3.38686C13.5688 3.37258 13.7121 3.37258 13.8554 3.38686C13.8554 3.38686 13.8554 3.38686 13.8697 3.38686C13.9987 3.40115 14.1133 3.444 14.2423 3.48685C14.4858 3.61541 14.7151 3.8011 14.93 4.00107L18.7986 7.85774C19.0709 8.12913 19.3574 8.41481 19.6297 8.6862C19.9162 8.97188 20.0738 9.35755 20.0738 9.77178C20.0738 10.186 19.9162 10.5717 19.6153 10.8716L15.2452 15.2282L17.5807 17.5565L21.9508 13.1999C22.0368 13.1142 22.1228 13.0285 22.1944 12.9285C22.1944 12.9143 22.2231 12.9 22.2374 12.8857C22.309 12.8 22.395 12.7 22.4667 12.6C22.4667 12.6 22.4667 12.5857 22.481 12.5714C22.6243 12.3572 22.7676 12.1429 22.8678 11.9144C22.9108 11.843 22.9395 11.7573 22.9681 11.6858C22.9968 11.6144 23.0255 11.543 23.0541 11.4716V11.443C23.2404 10.9145 23.355 10.3574 23.355 9.77178C23.355 8.50051 22.8678 7.30066 21.9652 6.38649C21.5926 5.94369 21.1628 5.54374 20.7186 5.14379L18.0536 2.48697C17.7383 2.14416 17.4088 1.81563 17.0649 1.50138L17.0219 1.45853C16.6494 1.08715 16.2482 0.80147 15.804 0.572927C15.7754 0.572927 15.761 0.544359 15.7324 0.544359C15.7037 0.530075 15.6608 0.515791 15.6321 0.501507C15.1449 0.244396 14.6148 0.0729887 14.056 0.0158529C13.5545 -0.0269989 13.053 0.015853 12.5659 0.158692C12.4799 0.172976 12.4082 0.201544 12.3223 0.215828C12.3079 0.215828 12.2936 0.215828 12.2793 0.215828C12.093 0.272964 11.9068 0.3301 11.7205 0.401519C11.6918 0.401519 11.6775 0.415803 11.6488 0.430087C11.5772 0.458655 11.5199 0.487223 11.4483 0.515791C11.4196 0.515791 11.4053 0.544359 11.3766 0.558643C10.9324 0.787186 10.5312 1.07286 10.1587 1.44425L10.0154 1.58709C9.49961 2.02989 9.02678 2.50126 8.55395 2.98691C7.29307 4.25818 6.04651 5.52945 4.78563 6.80072L1.40417 10.1717C1.28954 10.286 1.17491 10.4146 1.07462 10.5431C1.04596 10.5717 1.0173 10.6145 0.988648 10.6431C0.974319 10.6574 0.945663 10.686 0.931335 10.7002C0.730739 10.9145 0.601785 11.2145 0.458503 11.4573C0.286564 11.7573 0.15761 12.0858 0.0859694 12.4286C0.0286565 12.7143 0 13.0142 0 13.3142C0 13.3999 0 13.4856 0 13.5856C0 13.7142 -1.33442e-08 13.8427 0.0143282 13.9713C0.0143282 13.9855 0.0143282 14.0141 0.0143282 14.0284C0.0143282 14.1427 0.0429847 14.2712 0.0573129 14.3855C0.0573129 14.4141 0.0573129 14.4283 0.0573129 14.4569C0.0716411 14.5712 0.100298 14.6997 0.128954 14.814C0.128954 14.8283 0.128954 14.8426 0.128954 14.8569C0.15761 14.9854 0.200595 15.0997 0.24358 15.214C0.286564 15.3282 0.329549 15.4568 0.386862 15.5711C0.386862 15.5711 0.386862 15.5996 0.40119 15.6139C0.458503 15.7282 0.515816 15.8282 0.573129 15.9424C0.573129 15.9567 0.587457 15.971 0.601785 15.9853C0.659098 16.0996 0.73074 16.1996 0.802381 16.2995C0.802381 16.2995 0.802381 16.2995 0.802381 16.3138C0.874022 16.4281 0.959991 16.5281 1.04596 16.6281C1.14626 16.7566 1.26088 16.8852 1.38984 16.9995L1.54745 17.1566C2.07759 17.8136 2.69371 18.4136 3.29549 19.0135C4.47041 20.1705 5.65965 21.3275 6.83456 22.4845C7.80888 23.4415 8.76887 24.3843 9.74319 25.3413C10.5886 26.1697 11.4626 27.0125 12.5659 27.441C13.4255 27.7695 14.3855 27.8267 15.2739 27.5839C16.7067 27.1982 17.8386 26.1126 18.8989 25.0556C20.8762 23.0987 22.8535 21.1418 24.8308 19.1849C26.0917 17.9422 27.4242 16.5567 27.6821 14.814C27.8971 13.3856 27.4242 11.8287 26.4499 10.7717L26.4929 10.8574ZM13.1963 3.444C13.2536 3.42971 13.2966 3.41543 13.3539 3.41543C13.2966 3.41543 13.2393 3.42971 13.182 3.45828L13.1963 3.444ZM13.6118 3.38686C13.6118 3.38686 13.4829 3.38686 13.4112 3.40115C13.4829 3.40115 13.5402 3.38686 13.6118 3.38686C13.6835 3.38686 13.7408 3.38686 13.8124 3.40115C13.7408 3.40115 13.6835 3.38686 13.6118 3.38686ZM14.056 3.444C14.056 3.444 14.142 3.47257 14.1706 3.48685C14.1706 3.48685 14.1993 3.48685 14.1993 3.50113C14.1563 3.48685 14.099 3.45828 14.0417 3.444H14.056ZM13.8554 3.40115C13.8554 3.40115 13.9843 3.42971 14.0417 3.444C13.9843 3.42971 13.9127 3.41543 13.8554 3.40115ZM15.8184 0.630062C15.8184 0.630062 15.7754 0.601494 15.7467 0.601494C15.7754 0.601494 15.7897 0.630062 15.8184 0.630062ZM12.3366 0.25868C12.3366 0.25868 12.3079 0.25868 12.2936 0.25868C12.3079 0.25868 12.3223 0.25868 12.3366 0.25868ZM11.7348 0.472939C11.7348 0.472939 11.6918 0.487223 11.6632 0.501507C11.6918 0.501507 11.7062 0.487223 11.7348 0.472939ZM11.4769 0.587211C11.4769 0.587211 11.4339 0.615778 11.4053 0.630062C11.4339 0.630062 11.4483 0.601495 11.4769 0.587211Z" fill="white"/>
<path d="M141.814 12.1401H142.45L146.689 6.83175H151.889L145.7 14.3474H144.522L141.8 17.5973L141.814 12.1401ZM137.684 1.92969H142.247V21.538H137.684V1.92969ZM142.884 15.363L145.89 12.1265L152.105 21.538H146.824L142.884 15.363Z" fill="white"/>
<path d="M125.292 21.538H120.729V6.83179H125.062V9.49949H125.211C125.554 8.61477 126.114 7.91964 126.89 7.41408C127.666 6.8995 128.596 6.64221 129.68 6.64221C130.709 6.64221 131.607 6.87242 132.374 7.33283C133.142 7.78422 133.733 8.42519 134.148 9.25574C134.573 10.0863 134.785 11.0523 134.785 12.1537V21.538H130.221V13.0339C130.221 12.4741 130.126 12.0002 129.937 11.612C129.756 11.2238 129.485 10.9214 129.124 10.7047C128.763 10.488 128.325 10.3797 127.811 10.3797C127.305 10.3797 126.863 10.4925 126.484 10.7182C126.105 10.9349 125.811 11.2464 125.603 11.6526C125.396 12.0589 125.292 12.5464 125.292 13.1151V21.538Z" fill="white"/>
<path d="M113.227 6.83173H117.791V21.5379H113.227V6.83173ZM115.502 5.07131C115.078 5.07131 114.685 4.97201 114.324 4.7734C113.963 4.57479 113.67 4.30847 113.444 3.97444C113.227 3.63139 113.119 3.26577 113.119 2.87757C113.119 2.47132 113.227 2.10119 113.444 1.76716C113.67 1.43313 113.963 1.16681 114.324 0.968204C114.685 0.769593 115.078 0.670288 115.502 0.670288C115.936 0.670288 116.333 0.769593 116.694 0.968204C117.055 1.16681 117.34 1.43313 117.547 1.76716C117.764 2.10119 117.872 2.47132 117.872 2.87757C117.872 3.26577 117.764 3.63139 117.547 3.97444C117.34 4.30847 117.055 4.57479 116.694 4.7734C116.333 4.97201 115.936 5.07131 115.502 5.07131Z" fill="white"/>
<path d="M110.288 21.538H105.725V1.92969H110.288V21.538Z" fill="white"/>
<path d="M88.6074 6.83179H93.1032V9.35054H93.2793C93.4959 8.83595 93.7803 8.38457 94.1324 7.99637C94.4845 7.59915 94.9359 7.27415 95.4866 7.02138C96.0463 6.7686 96.6918 6.64221 97.423 6.64221C98.5063 6.64221 99.4904 6.91756 100.375 7.46825C101.26 8.01894 101.968 8.86304 102.501 10.0005C103.034 11.129 103.3 12.5238 103.3 14.1849C103.3 15.8009 103.043 17.1821 102.528 18.3286C102.023 19.4661 101.323 20.3238 100.429 20.9015C99.5355 21.4703 98.5289 21.7547 97.4095 21.7547C96.6963 21.7547 96.0643 21.6373 95.5136 21.4026C94.963 21.1588 94.5071 20.8474 94.1459 20.4682C93.7939 20.089 93.505 19.6557 93.2793 19.1682H93.1709V27.063H88.6074V6.83179ZM93.0491 14.1714C93.0491 14.9748 93.1619 15.679 93.3876 16.2838C93.6133 16.8887 93.9338 17.3581 94.3491 17.6922C94.7734 18.0172 95.2789 18.1797 95.8657 18.1797C96.4525 18.1797 96.9536 18.0127 97.3688 17.6786C97.7841 17.3446 98.1001 16.8797 98.3168 16.2838C98.5334 15.679 98.6418 14.9748 98.6418 14.1714C98.6418 13.3679 98.5334 12.6682 98.3168 12.0724C98.1001 11.4766 97.7841 11.0207 97.3688 10.7047C96.9536 10.3797 96.4525 10.2172 95.8657 10.2172C95.2699 10.2172 94.7643 10.3752 94.3491 10.6912C93.9338 11.0071 93.6133 11.463 93.3876 12.0589C93.1619 12.6547 93.0491 13.3589 93.0491 14.1714Z" fill="white"/>
<path d="M81.4583 15.3495C81.025 15.3585 80.4382 15.3856 79.6979 15.4307L78.4791 15.5391C77.8923 15.5932 77.4274 15.7738 77.0844 16.0807C76.7503 16.3877 76.5833 16.7759 76.5833 17.2453C76.5833 17.5613 76.6646 17.8366 76.8271 18.0713C76.9896 18.297 77.2153 18.4686 77.5041 18.5859C77.793 18.7033 78.1225 18.762 78.4927 18.762C79.0073 18.762 79.4767 18.6581 79.901 18.4505C80.3253 18.2338 80.6593 17.9404 80.9031 17.5703C81.1468 17.1911 81.2687 16.7713 81.2687 16.3109L81.2281 11.5037C81.2281 11.1606 81.1514 10.8672 80.9979 10.6234C80.8444 10.3707 80.6142 10.1856 80.3073 10.0682C80.0003 9.94185 79.6392 9.87866 79.2239 9.87866C78.6281 9.87866 78.1406 10.0096 77.7614 10.2714C77.3823 10.5241 77.1521 10.8943 77.0708 11.3818H72.7917C72.8729 10.4971 73.1708 9.69359 73.6854 8.97137C74.209 8.24915 74.9448 7.6804 75.8927 7.26513C76.8496 6.84985 77.9916 6.64221 79.3187 6.64221C80.5555 6.64221 81.6614 6.83631 82.6364 7.2245C83.6204 7.60367 84.3923 8.16339 84.952 8.90366C85.5208 9.64394 85.8052 10.5287 85.8052 11.5578V21.538H81.4989V19.4932H81.3906C81.1288 19.9807 80.7948 20.396 80.3885 20.739C79.9823 21.0731 79.5083 21.3304 78.9666 21.5109C78.425 21.6915 77.8021 21.7817 77.0979 21.7817C76.15 21.7817 75.3104 21.6192 74.5792 21.2942C73.8569 20.9692 73.2882 20.4817 72.8729 19.8317C72.4576 19.1818 72.25 18.3873 72.25 17.4484C72.25 15.9137 72.751 14.7898 73.7531 14.0766C74.7552 13.3543 76.0687 12.9436 77.6937 12.8443C78.0007 12.8172 78.8267 12.7766 80.1718 12.7224L81.4312 12.6682L81.4583 15.3495Z" fill="white"/>
<path d="M60.5635 21.538H56V6.83179H60.3333V9.49949H60.4823C60.8253 8.61477 61.3851 7.91964 62.1614 7.41408C62.9378 6.8995 63.8677 6.64221 64.951 6.64221C65.9802 6.64221 66.8784 6.87242 67.6458 7.33283C68.4132 7.78422 69.0045 8.42519 69.4197 9.25574C69.844 10.0863 70.0562 11.0523 70.0562 12.1537V21.538H65.4927V13.0339C65.4927 12.4741 65.3979 12.0002 65.2083 11.612C65.0277 11.2238 64.7569 10.9214 64.3958 10.7047C64.0347 10.488 63.5968 10.3797 63.0823 10.3797C62.5767 10.3797 62.1344 10.4925 61.7552 10.7182C61.376 10.9349 61.0826 11.2464 60.875 11.6526C60.6673 12.0589 60.5635 12.5464 60.5635 13.1151V21.538Z" fill="white"/>
<path d="M48.9313 7.75254C48.8862 7.27407 48.7418 6.86331 48.498 6.52026C48.2543 6.1772 47.9112 5.91991 47.4688 5.74838C47.0265 5.56783 46.4893 5.47755 45.8574 5.47755C45.2525 5.47755 44.738 5.5588 44.3136 5.7213C43.8893 5.8838 43.5689 6.10949 43.3522 6.39838C43.1355 6.68727 43.0272 7.0213 43.0272 7.40046C43.0091 7.96921 43.2484 8.42511 43.7449 8.76816C44.2414 9.10219 44.9727 9.38205 45.9386 9.60774L47.6449 9.98691C49.6129 10.4202 51.098 11.1199 52.1001 12.0859C53.1022 13.0428 53.6122 14.2977 53.6303 15.8504C53.6303 17.0782 53.3188 18.139 52.6959 19.0327C52.073 19.9174 51.1838 20.599 50.0282 21.0775C48.8727 21.5469 47.4869 21.7817 45.8709 21.7817C44.2189 21.7817 42.788 21.5334 41.5782 21.0369C40.3685 20.5403 39.4342 19.7956 38.7751 18.8025C38.1161 17.8004 37.7685 16.5591 37.7324 15.0786H42.1741C42.2192 15.7015 42.3953 16.2296 42.7022 16.6629C43.0091 17.0872 43.4289 17.4077 43.9616 17.6244C44.4942 17.841 45.1081 17.9494 45.8032 17.9494C46.4532 17.9494 47.0129 17.8591 47.4824 17.6786C47.9518 17.498 48.3084 17.2497 48.5522 16.9338C48.805 16.6178 48.9313 16.2522 48.9313 15.8369C48.9313 15.4668 48.8185 15.1463 48.5928 14.8754C48.3671 14.6046 48.0241 14.3699 47.5636 14.1713C47.1032 13.9727 46.4984 13.7876 45.7491 13.6161L43.6907 13.1286C41.9303 12.7313 40.5852 12.0904 39.6553 11.2057C38.7255 10.3209 38.2605 9.15636 38.2605 7.71192C38.2605 6.52026 38.5855 5.46852 39.2355 4.55672C39.8855 3.64492 40.7883 2.93624 41.9439 2.43069C43.0994 1.9161 44.413 1.65881 45.8845 1.65881C47.3741 1.65881 48.6786 1.91159 49.798 2.41714C50.9265 2.9227 51.7977 3.63589 52.4115 4.55672C53.0345 5.47755 53.3504 6.54282 53.3595 7.75254H48.9313Z" fill="white"/>
</svg>
